<svg width="110" height="108" viewBox="0 0 110 108" fill="none" xmlns="http://www.w3.org/2000/svg">
<line x1="27.5" y1="20" x2="27.5" y2="76" stroke="black" stroke-width="5"/>
<line x1="20" y1="68.5" x2="60" y2="68.5" stroke="black" stroke-width="5"/>
<line x1="22.2322" y1="90.8302" x2="61.8302" y2="51.2322" stroke="black" stroke-width="5"/>
<line x1="80.5" y1="20" x2="80.5" y2="76" stroke="black" stroke-width="3"/>
<line x1="81" y1="20" x2="81" y2="76" stroke="black" stroke-width="4"/>
<line x1="45.7678" y1="51.2322" x2="85.3657" y2="90.8302" stroke="black" stroke-width="5"/>
<line x1="75.7678" y1="25.2322" x2="95.5668" y2="45.0312" stroke="black" stroke-width="5"/>
<line x1="74.2322" y1="63.0312" x2="94.0312" y2="43.2323" stroke="black" stroke-width="5"/>
<line x1="75.7678" y1="51.2322" x2="95.5668" y2="71.0312" stroke="black" stroke-width="5"/>
<line x1="74.2322" y1="89.0312" x2="94.0312" y2="69.2323" stroke="black" stroke-width="5"/>
<line x1="47" y1="18.5" x2="64" y2="18.5" stroke="#B62424" stroke-width="3"/>
<line x1="14" y1="96.5" x2="31" y2="96.5" stroke="#B62424" stroke-width="3"/>
<line x1="91" y1="22.5" x2="108" y2="22.5" stroke="#B62424" stroke-width="3"/>
<line x1="90.5" y1="24" x2="90.5" y2="7" stroke="#B62424" stroke-width="3"/>
<line x1="93.5" y1="108" x2="93.5" y2="91" stroke="#B62424" stroke-width="3"/>
<line x1="15.5" y1="106" x2="15.5" y2="76" stroke="#B62424" stroke-width="3"/>
<line x1="45.5" y1="34" x2="45.5" y2="17" stroke="#B62424" stroke-width="3"/>
<line x1="13.5" y1="34" x2="13.5" y2="1" stroke="#B62424" stroke-width="3"/>
<line x1="1.5" y1="1" x2="1.5" y2="108" stroke="#B62424" stroke-width="3"/>
<line x1="1.5" y1="1" x2="1.5" y2="108" stroke="#B62424" stroke-width="3"/>
<line x1="108.5" y1="1" x2="108.5" y2="108" stroke="#B62424" stroke-width="3"/>
<line x1="1" y1="106.5" x2="44" y2="106.5" stroke="#B62424" stroke-width="3"/>
<line x1="64" y1="106.5" x2="107" y2="106.5" stroke="#B62424" stroke-width="3"/>
<path d="M66 1.5H109" stroke="#B62424" stroke-width="3"/>
<line x1="1" y1="1.5" x2="44" y2="1.5" stroke="#B62424" stroke-width="3"/>
<line x1="92" y1="56.5" x2="107" y2="56.5" stroke="#B62424" stroke-width="3"/>
<line y1="54.5" x2="15" y2="54.5" stroke="#B62424" stroke-width="3"/>
</svg>
